<svg width="24" height="24" viewBox="0 0 24 24" fill="none" xmlns="http://www.w3.org/2000/svg">
<g clip-path="url(#clip0_247_296)">
<path d="M17.5268 4.84456C16.2878 3.65511 14.5731 3 12.6986 3C9.83534 3 8.07427 4.1737 7.10114 5.15826C5.90181 6.37162 5.21411 7.98273 5.21411 9.57856C5.21411 11.5822 6.05221 13.1201 7.45569 13.6923C7.54991 13.7309 7.64473 13.7503 7.73769 13.7503C8.03377 13.7503 8.26837 13.5566 8.34966 13.2458C8.39705 13.0675 8.50681 12.6277 8.55455 12.4367C8.65671 12.0597 8.57417 11.8783 8.35134 11.6157C7.94543 11.1354 7.75639 10.5675 7.75639 9.82831C7.75639 7.63275 9.39124 5.29934 12.4213 5.29934C14.8255 5.29934 16.3189 6.6658 16.3189 8.86541C16.3189 10.2535 16.02 11.5389 15.4769 12.4852C15.0995 13.1427 14.436 13.9264 13.4173 13.9264C12.9768 13.9264 12.581 13.7454 12.3313 13.43C12.0955 13.1317 12.0177 12.7465 12.1126 12.345C12.2198 11.8913 12.3659 11.4181 12.5073 10.9606C12.7653 10.1251 13.0091 9.33594 13.0091 8.70632C13.0091 7.62941 12.3471 6.90578 11.3618 6.90578C10.1097 6.90578 9.12869 8.17753 9.12869 9.80106C9.12869 10.5973 9.3403 11.1928 9.4361 11.4215C9.27835 12.0898 8.34087 16.0632 8.16305 16.8125C8.06021 17.2498 7.44082 20.7045 8.46602 20.9799C9.61789 21.2894 10.6475 17.9249 10.7523 17.5447C10.8373 17.2355 11.1344 16.0663 11.3166 15.3476C11.8726 15.8832 12.768 16.2453 13.6391 16.2453C15.2815 16.2453 16.7585 15.5062 17.7981 14.1644C18.8063 12.8629 19.3616 11.0489 19.3616 9.0568C19.3616 7.49944 18.6928 5.96408 17.5268 4.84456Z" fill="black"/>
</g>
<defs>
<clipPath id="clip0_247_296">
<rect width="24" height="24" fill="white"/>
</clipPath>
</defs>
</svg>
